<svg xmlns="http://www.w3.org/2000/svg" width="66" height="66" viewBox="0 0 66 66" fill="none">
    <path fill-rule="evenodd" clip-rule="evenodd" d="M33 66C51.2254 66 66 51.2254 66 33C66 14.7746 51.2254 0 33 0C14.7746 0 0 14.7746 0 33C0 51.2254 14.7746 66 33 66Z" fill="white"/>
    <path fill-rule="evenodd" clip-rule="evenodd" d="M52.8414 33.6494C52.8414 39.7786 50.9023 45.6188 47.3619 50.4641C46.9361 51.0468 46.1185 51.174 45.5357 50.7482C44.953 50.3224 44.8258 49.5049 45.2516 48.9221C48.4676 44.5207 50.2277 39.2195 50.2277 33.6494C50.2277 28.1611 48.5192 22.9332 45.3902 18.5683C44.9697 17.9817 45.1044 17.1653 45.691 16.7448C46.2776 16.3243 47.094 16.459 47.5145 17.0456C50.9591 21.8509 52.8414 27.6103 52.8414 33.6494ZM41.695 46.7834C44.1713 43.2451 45.5229 39.0146 45.5229 34.5819C45.5229 30.1058 44.1447 25.8365 41.6233 22.2786C41.206 21.6897 40.3903 21.5506 39.8015 21.968C39.2126 22.3853 39.0736 23.2009 39.4909 23.7898C41.7013 26.9089 42.9093 30.6509 42.9093 34.5819C42.9093 38.4748 41.7246 42.1828 39.5537 45.2847C39.1399 45.876 39.2837 46.6909 39.875 47.1047C40.4663 47.5185 41.2812 47.3747 41.695 46.7834ZM18.3411 29.0777L24.4258 23.701C25.7169 22.5601 27.7502 23.4768 27.7502 25.1997V43.3485C27.7502 45.0715 25.7169 45.9881 24.4258 44.8472L18.3415 39.4708H12.5C11.3954 39.4708 10.5 38.5754 10.5 37.4708V31.078C10.5 29.9734 11.3954 29.078 12.5 29.078H18.3411V29.0777ZM38.5024 34.5824C38.5024 37.4973 37.5985 40.2799 35.9436 42.6056C35.5251 43.1936 34.7092 43.3311 34.1211 42.9127C33.5331 42.4942 33.3956 41.6783 33.8141 41.0903C35.1567 39.2035 35.8888 36.9497 35.8888 34.5824C35.8888 32.1766 35.1325 29.8882 33.7491 27.9841C33.3248 27.4002 33.4542 26.583 34.0381 26.1587C34.622 25.7345 35.4392 25.8639 35.8635 26.4478C37.5688 28.7948 38.5024 31.6199 38.5024 34.5824Z" fill="#FFBF24"/>
</svg>