<svg xmlns="http://www.w3.org/2000/svg" width="9" height="9" viewBox="0 0 9 9" fill="none">
    <path d="M3.72692 1.49444L3.05526 2.64429C2.89826 2.91306 2.62506 3.0934 2.31621 3.13213L1.71399 3.20765C0.852018 3.31575 0.528368 4.39592 1.18887 4.9602L1.66123 5.36375C1.96098 5.61983 2.0823 6.02813 1.97101 6.40634L1.77698 7.06577C1.54054 7.86933 2.33766 8.5901 3.11344 8.27421L4.21656 7.82503C4.46201 7.72509 4.73709 7.72666 4.98138 7.82941L6.10961 8.30394C6.8592 8.61922 7.65166 7.95554 7.47283 7.16225L7.2857 6.33212C7.20904 5.99209 7.31497 5.63669 7.56527 5.39411L8.04559 4.92861C8.64612 4.34659 8.30947 3.32841 7.48036 3.21909L6.84625 3.13549C6.53656 3.09466 6.26374 2.91145 6.10875 2.64025L5.45862 1.50265C5.07681 0.834547 4.11505 0.82999 3.72692 1.49444Z" fill="white" stroke="#060606" stroke-width="0.5" stroke-linecap="round" stroke-linejoin="round"/>
</svg>