<svg xmlns="http://www.w3.org/2000/svg" width="9" height="9" viewBox="0 0 9 9" fill="none">
    <path d="M3.25964 1.49444L2.58797 2.64429C2.43097 2.91306 2.15777 3.0934 1.84893 3.13213L1.24671 3.20765C0.384733 3.31575 0.0610832 4.39592 0.721589 4.9602L1.19395 5.36375C1.4937 5.61983 1.61502 6.02813 1.50373 6.40634L1.3097 7.06577C1.07325 7.86933 1.87037 8.5901 2.64615 8.27421L3.74927 7.82503C3.99472 7.72509 4.26981 7.72666 4.51409 7.82941L5.64232 8.30394C6.39191 8.61922 7.18437 7.95554 7.00555 7.16225L6.81841 6.33212C6.74176 5.99209 6.84769 5.63669 7.09798 5.39411L7.5783 4.92861C8.17883 4.34659 7.84218 3.32841 7.01307 3.21909L6.37897 3.13549C6.06928 3.09466 5.79646 2.91145 5.64146 2.64025L4.99134 1.50265C4.60952 0.834547 3.64776 0.82999 3.25964 1.49444Z" fill="#FFCB08" stroke="#060606" stroke-width="0.5" stroke-linecap="round" stroke-linejoin="round"/>
</svg>