<svg version="1.0" xmlns="http://www.w3.org/2000/svg"
  width="130.000000pt" height="136.000000pt" viewBox="0 0 130.000000 136.000000"
  preserveAspectRatio="xMidYMid meet">

  <g transform="translate(0.000000,136.000000) scale(0.100000,-0.100000)"
    fill="#FBD008" stroke="none">
    <path
      d="M515 1345 c-234 -51 -405 -205 -481 -433 -65 -193 -31 -403 91 -574
49 -67 53 -91 21 -125 -14 -15 -26 -37 -26 -48 0 -11 -7 -42 -15 -69 -20 -65
-19 -96 1 -96 10 0 53 20 98 44 45 24 99 53 121 64 l40 21 94 -25 c91 -23 100
-24 238 -14 111 8 157 15 202 34 135 55 251 161 320 295 166 323 34 714 -294
872 -133 64 -279 83 -410 54z m279 -71 c188 -48 345 -198 407 -386 33 -102 34
-263 0 -358 -61 -175 -192 -307 -367 -372 -50 -19 -79 -22 -189 -22 -112 0
-138 3 -190 23 -96 37 -95 37 -195 -18 -51 -28 -94 -51 -95 -51 -2 0 8 45 21
101 13 55 24 107 24 115 0 9 -13 32 -29 52 -70 87 -121 238 -121 355 1 254
178 486 425 558 78 23 227 24 309 3z" />
    <path
      d="M590 1077 l-25 -13 2 -154 c1 -85 4 -206 8 -269 8 -126 20 -151 75
-151 55 0 59 20 72 305 l12 258 -23 18 c-27 22 -84 25 -121 6z" />
    <path
      d="M599 442 c-47 -39 -16 -122 46 -122 62 0 93 83 46 122 -13 10 -33 18
-46 18 -13 0 -33 -8 -46 -18z" />
  </g>
</svg>